<svg data-name="Layer 1" xmlns="http://www.w3.org/2000/svg" viewBox="0 0 216 216"><path d="M190.57 153.76a2.11 2.11 0 00-.82-.17 2.17 2.17 0 00-1.54.64l-34.61 34.61a2.17 2.17 0 001.53 3.71h34.62a2.17 2.17 0 002.16-2.17v-34.62a2.15 2.15 0 00-1.34-2zm-3 9.65v24.8h-27.21l1.71-1.71 23.8-23.8 1.71-1.71z"/><path d="M104.8 215h107.84a2.17 2.17 0 002.17-2.17V105a2.19 2.19 0 00-2.17-2.17 2.17 2.17 0 00-1.53.64l-9.49 9.48-1.7 1.71V47.73a2.17 2.17 0 00-2.17-2.17H171l1.7-1.7 8.84-8.86 8.52-8.52a8.67 8.67 0 000-12.24l-9.85-9.84a8.64 8.64 0 00-12.24 0l-8.52 8.51-10.29 10.31-22 22.05-.29.29H27.08V13.23a2.17 2.17 0 00-2.17-2.17A23.94 23.94 0 001 35v134.51a2.5 2.5 0 00.05.47v.14A23 23 0 0024 191.36h99.2l-1.7 1.71-18.23 18.23a2.17 2.17 0 001.53 3.7zm60-201.24l6.2-6.28a4.35 4.35 0 016.12 0l9.88 9.85a4.31 4.31 0 010 6.11l-6.28 6.28-.7.7-.71-.7-14.55-14.55-.71-.7zm-10.3 10.29l5.82-5.81.7-.71.71.71 14.54 14.54.71.71-.71.71-5.85 5.8-.7.71L169 40l-14.54-14.54-.7-.7zM111.74 209l32-32a2.17 2.17 0 000-3.06 2.78 2.78 0 00-.32-.26 2.12 2.12 0 00-1.22-.38 2.15 2.15 0 00-1.53.64l-12.84 12.84-.29.29H24A18.57 18.57 0 015.35 169v-.06c0-.63.07-1.25.14-1.86 0-.28.08-.58.13-.87v-.07c0-.29.1-.55.16-.81l.05-.22c0-.21.1-.43.16-.65s.07-.23.1-.35l.15-.5c.06-.17.11-.34.17-.5l.13-.35c.08-.22.16-.43.25-.65l.08-.18c.11-.27.23-.54.36-.8a19.75 19.75 0 0113.67-10.71h.1q.42-.09.84-.15h.14l.77-.1h.21l.75-.05h1.24a2.17 2.17 0 002.17-2.16v-23a2.17 2.17 0 10-4.33 0v20.88l-.88.11a23.57 23.57 0 00-13.69 6.45c-.36.34-.72.72-1.14 1.19l-1.75 2V35a19.53 19.53 0 0116.25-19.32l1.17-.2v96.65a2.17 2.17 0 104.33 0V49.9h95.4l-1.7 1.71-17.51 17.51a2.16 2.16 0 103.06 3.06l22.92-22.92.08-.07L150 28.53l.71-.71.71.71 14.54 14.54.71.71-.71.71-1.7 1.7-63.84 63.84-.71.71-.7-.71-14.61-14.5-.7-.71.7-.71L97 81.52a2.16 2.16 0 10-3.06-3.06L79.1 93.29a1.29 1.29 0 00-.16.17v.05l-.1.14a1 1 0 00-.09.15v.08a.78.78 0 000 .14l-6.15 17.45-4.39 12.03a2.62 2.62 0 00-.09.33l-.15.82H56.6a2.17 2.17 0 000 4.33h87.73a2.17 2.17 0 000-4.33H75.55l5.51-1.94 19.29-6.81h.06l.15-.06.25.43-.22-.45.15-.08.15-.11.17-.14 65.18-65.19.29-.29h28.92V119l-.29.3L150 164.59a2.15 2.15 0 000 3.06.8.8 0 00.17.15 2.1 2.1 0 001.36.49 2.15 2.15 0 001.37-.49.75.75 0 00.16-.15l55.73-55.72 1.71-1.71v31.36h-6.85a2.17 2.17 0 000 4.34h6.85v11.54h-6.85a2.17 2.17 0 000 4.34h6.85v11.54h-6.85a2.17 2.17 0 000 4.34h6.85v11.54h-6.85a2.17 2.17 0 000 4.34h6.85v17.11H110zm-16-96l-1.5.53-9.07 3.2-.59.21-.45-.44-6-6-.44-.44.21-.6 3.2-9.07.53-1.5 1.12 1.12 11.92 11.92z"/></svg>