<svg data-name="Layer 1" xmlns="http://www.w3.org/2000/svg" viewBox="0 0 216 216"><path d="M63.33 120.75A74.54 74.54 0 10144 46.41l-3.22-.26V32.61h4.86a2.82 2.82 0 000-5.64h-15.41a2.82 2.82 0 100 5.64h4.86v13.54l-3.22.26a74.7 74.7 0 00-68.54 74.34zm74.59-68.94A68.94 68.94 0 1169 120.75a69 69 0 0168.92-68.94z"/><path d="M137.92 66.42a54.33 54.33 0 1054.33 54.33 54.39 54.39 0 00-54.33-54.33zm48.2 61.14A48.86 48.86 0 01144.73 169l-4 .56v-10.18a2.83 2.83 0 10-5.65 0v10.14l-4-.56a48.86 48.86 0 01-41.4-41.4l-.56-4h10.17a2.83 2.83 0 000-5.65H89.15l.56-4a48.86 48.86 0 0141.4-41.4l4-.56v10.17a2.83 2.83 0 005.65 0V72l4 .56a48.86 48.86 0 0141.39 41.4l.56 4h-10.17a2.83 2.83 0 000 5.65h10.14z"/><path d="M141.76 120.6l-1-1v-15.54a2.83 2.83 0 00-5.65 0v16.69a2.81 2.81 0 00.83 2l13.59 13.59a2.82 2.82 0 004-4zm-99.9 17.91H18.31a2.82 2.82 0 000 5.64h23.55a2.82 2.82 0 000-5.64zm0-26.17H6.53a2.83 2.83 0 000 5.65h35.33a2.83 2.83 0 000-5.65zm0-26.16H18.31a2.82 2.82 0 000 5.64h23.55a2.82 2.82 0 100-5.64z"/></svg>