<svg data-name="Layer 1" xmlns="http://www.w3.org/2000/svg" viewBox="0 0 16 16"><path d="M10.05 11.89c-.19.23-.08.12-2.56 2.59a4.22 4.22 0 01-6-6L3.43 6.6a.36.36 0 01.62.24A5.56 5.56 0 004.19 8a.34.34 0 01-.1.33L2.71 9.71a2.53 2.53 0 003.58 3.58L8.56 11a2.53 2.53 0 000-3.58A2.79 2.79 0 007.87 7a.36.36 0 01-.19-.37 1.59 1.59 0 01.44-.92l.13-.13a.37.37 0 01.42-.07 4.28 4.28 0 011.09.78 4.23 4.23 0 01.29 5.6zm4.43-4.4L12.57 9.4a.36.36 0 01-.57-.24A5.56 5.56 0 0011.81 8a.34.34 0 01.1-.33l1.38-1.39a2.53 2.53 0 00-3.58-3.57L7.44 5a2.53 2.53 0 000 3.58 2.79 2.79 0 00.69.49.36.36 0 01.19.37 1.59 1.59 0 01-.44.92l-.13.13a.37.37 0 01-.42.07 4.28 4.28 0 01-1.09-.78A4.23 4.23 0 016 4.11c.14-.23 0-.11 2.51-2.59a4.22 4.22 0 016 6z"/></svg>