<svg data-name="Layer 1" xmlns="http://www.w3.org/2000/svg" viewBox="0 0 216 216"><path d="M208.32 193.53h-4.07l.5-1.88a56.33 56.33 0 00-17.31-56.91l-.67-.59.2-.87A132.9 132.9 0 00151.2 8.83a1.8 1.8 0 00-1.2-.46 2 2 0 00-1.37.56 133 133 0 00-35.67 124.35l.2.87-.67.59a56.29 56.29 0 00-17.34 56.91l.5 1.88H74.34V58.11l1.4-.1c1.77-.12 3.56-.18 5.48-.18 2.48 0 4.72.1 6.7.19 1.58.07 2.94.13 4.14.13 4.53 0 4.53-.94 4.53-2v-12.9a1.88 1.88 0 00-1.87-1.88H64.35V23.48l1.1-.31a11.11 11.11 0 10-5.94 0l1.09.31v17.89h-8.1a1.88 1.88 0 00-1.88 1.88v150.28H41V85.47a2 2 0 00-1.87-1.88H28.9v-17.9l1.1-.31a10.79 10.79 0 10-5.92 0l1.09.31V83.6H15a2 2 0 00-1.87 1.87v108.06H2.68a1.88 1.88 0 00-1.87 1.88v17.21a1.88 1.88 0 001.87 1.88h205.64a1.88 1.88 0 001.88-1.88v-17.21a1.88 1.88 0 00-1.88-1.88zM74.34 52.76v-7.64h18.5v9.14h-18.5zM187.63 140a53.18 53.18 0 0114.61 45.47l-.67 4.29-2.12-3.79a57.11 57.11 0 00-21.95-22l-1.24-.69.62-1.28a139.11 139.11 0 008.24-21.4l.71-2.45zM199 193.53h-32.56v-18.78h2.29a1.87 1.87 0 001.59-.88c1-1.67 2.12-3.54 3.42-5.9l.74-1.32 1.31.74a53.6 53.6 0 0122.22 24zM124.94 49.34A130.11 130.11 0 01148.86 14l1.14-1.12 1 1.12a130 130 0 0124 35.34l1 2.13h-52zm-2.88 6.83l.37-1h55.08l.37 1a129.94 129.94 0 018.42 57.24 131 131 0 01-18.18 56.86l-.44.73h-35.44l-.44-.73a130.7 130.7 0 01-18.58-66.89 129.31 129.31 0 018.84-47.21zm40.63 118.58v18.78h-25.5v-18.78h25.5zm-29.25 0v18.78h-32.56l1-2.13a53.54 53.54 0 0122.26-24l1.32-.74.73 1.33c1.28 2.33 2.38 4.21 3.44 5.9a1.87 1.87 0 001.59.87h2.24zM112.26 140l1.8-1.81.71 2.45A137.6 137.6 0 00123 162l.62 1.28-1.24.7a56.93 56.93 0 00-22 22l-2.12 3.79-.67-4.29A53.16 53.16 0 01112.26 140zM55.12 12.54a7.35 7.35 0 117.35 7.34 7.36 7.36 0 01-7.35-7.34zm15.47 45.92V60H54.37V45.12h16.22v13.34M54.37 87.21v-23.5h16.22v25H54.37zm0 28.74V92.46h16.22v25H54.37zm0 28.74V121.2h16.22v25H54.37zm0 28.75v-23.5h16.22v25H54.37zm0 18.59v-13.34h16.22v14.84H54.37zM36.3 122.94l-8 12.19L27 137l-1.25-1.9-8-12.19-.54-.82.54-.83 8-12.19L27 107.2l1.25 1.9 8 12.19.54.83zm.91 5.43v24.13l-2.75-4.18-4.65-7.06-.54-.82.54-.83 4.65-7.06zm-17.63 4.18l4.65 7.06.54.83-.54.82-4.65 7.06-2.75 4.18v-24.12zm-1.84 25.39l8-12.19 1.25-1.9 1.25 1.9 8 12.19.54.82-.54.83-8 12.18-1.24 1.91-1.25-1.91-8-12.18-.54-.83zM27 180.49l1.25 1.9 5.81 8.82 1.53 2.32H18.43l1.57-2.32 5.81-8.82zm7.46 4.51l-4.65-7.06-.55-.83.55-.82 4.65-7.06 2.75-4.23v24.13zm2.75-88.24v19.13l-2.75-4.18-4.65-7.06-.55-.83.55-.82 4.65-7.06 2.75-4.18zM20 55.06a7 7 0 117 7 7 7 0 01-7-7zm1.25 32.29h14.36l-1.53 2.32-5.81 8.81-1.27 1.91-1.25-1.91L20 89.67l-1.53-2.32zm-4.39 23.51V91.73l2.75 4.18 4.62 7.09.54.82-.54.83-4.65 7.06-2.75 4.18zm0 73.29V165l2.75 4.18 4.65 7.06.54.82-.54.83-4.68 7.11-2.75 4.18zm189.62 14.63v12H4.56v-13.5h201.89zm-38.36-93v-21l-18.29-10.62-18.32 10.58v21l18.29 10.6zm-32.78-1.6l-.5-.29V86.64l.5-.29 14-8.1.5-.29.5.29 14 8.1.5.29v17.24l-.5.29-14 8.11-.5.29-.5-.29z"/></svg>