<svg id="Layer_1" data-name="Layer 1" xmlns="http://www.w3.org/2000/svg" viewBox="0 0 145.48 36.35"><defs><style>.cls-1,.cls-5{fill:#14315d;}.cls-1,.cls-2,.cls-3,.cls-4{fill-rule:evenodd;}.cls-2{fill:#f74d7b;}.cls-3{fill:#26abe8;}.cls-4{fill:#fff;}</style></defs><title>full-logo</title><path class="cls-1" d="M15.77,0,0,9.12V27.23l15.75,9.12L31.5,27.23V9.12Z"/><path class="cls-2" d="M7.89,22.7v-9L4,11.4V24.94l11.78,6.83v-4.5Z"/><path class="cls-3" d="M23.64,22.7v-9l3.91-2.25V24.94L15.76,31.77v-4.5Z"/><path class="cls-4" d="M23.64,13.65l3.91-2.25L15.76,4.59,4,11.4l3.91,2.25L10.79,12l7.87,4.56,3.9-2.25L14.68,9.72l1.08-.63Z"/><path class="cls-5" d="M40.82,12.29V24.83h3.09V20.1h4.68V17.59H43.91V15h5.33V12.28Zm14.06,2.65v3.24h1.57c1.26,0,1.9-.6,1.9-1.68s-.59-1.56-1.82-1.56Zm1.82-2.65c3.15,0,4.78,1.62,4.78,4.07a3.67,3.67,0,0,1-1.91,3.47l2.6,5H58.82l-2.11-4.29a7.54,7.54,0,0,1-1,.06h-.86v4.23H51.8V12.3h4.9Zm13.43,10c2,0,3-1.47,3-3.73s-1-3.67-3-3.67-2.94,1.56-2.94,3.67,1,3.73,2.94,3.73m0-10.19c3.81,0,6.2,2.5,6.2,6.46s-2.39,6.51-6.2,6.51-6.19-2.44-6.19-6.51,2.39-6.46,6.19-6.46m9,.2h2.68l4.86,7.37V12.28h3V24.81H87.07l-4.9-7.2v7.22h-3ZM95.69,15H92.06V12.28h10.33V15H98.77v9.83H95.68Zm9.92,6a6.33,6.33,0,0,0,3.58,1.53c1,0,1.52-.45,1.52-1.2s-.43-1.06-2.44-1.64c-2.54-.73-3.64-1.73-3.64-3.75,0-2.63,2-3.83,4.6-3.83a6.67,6.67,0,0,1,4.5,1.73l-1.39,1.89a5.2,5.2,0,0,0-3-1.16c-.9,0-1.5.35-1.5,1s.72,1,2.78,1.71c2.33.75,3.34,1.67,3.34,3.67,0,2.57-1.82,4.07-4.69,4.07a6.78,6.78,0,0,1-5.12-2.19Zm11.09-8.69h3.09V24.83H116.7ZM126.14,15v7.13h1.47c2.09,0,3-1.19,3-3.58s-1-3.55-3-3.55Zm1.47-2.72c4.18,0,6.27,2.46,6.27,6.06,0,4.5-2.18,6.49-6.75,6.49h-4.07V12.3h4.55Zm9.11,0h8.69V15H139.8v2.25h5.08V19.8H139.8v2.34h5.68v2.7h-8.76Z"/></svg>